<svg xmlns="http://www.w3.org/2000/svg" xmlns:xlink="http://www.w3.org/1999/xlink"><symbol id="bike" viewBox="0 0 24 21"><path d="M16 3.6c1 0 1.8-.8 1.8-1.8S17 0 16 0s-1.8.8-1.8 1.8.8 1.8 1.8 1.8zm3 7.4c-2.8 0-5 2.3-5 5s2.2 5 5 5 5-2.3 5-5-2.2-5-5-5zm0 8.6c-1.9 0-3.5-1.6-3.5-3.5s1.6-3.5 3.5-3.5 3.5 1.6 3.5 3.5-1.6 3.5-3.5 3.5zM14.8 8.9H19V7.1h-3.2l-1.9-3.3c-.3-.5-.8-.8-1.5-.8-.5 0-.9.2-1.2.5L7.5 7.2c-.3.3-.5.7-.5 1.2 0 .6.3 1.2.8 1.5l3.3 2v5H13v-6.5l-2.2-1.7 2.3-2.4 1.7 2.6zM5 11c-2.8 0-5 2.3-5 5s2.2 5 5 5 5-2.3 5-5-2.2-5-5-5zm0 8.6c-1.9 0-3.5-1.6-3.5-3.5s1.6-3.5 3.5-3.5 3.5 1.5 3.5 3.5-1.6 3.5-3.5 3.5z"/></symbol><symbol id="bus" viewBox="0 0 17 21"><path d="M16.2 3.1c-.2-1.2-1-1.6-2.1-2.1-1.1-.4-3.7-1-5.6-1C6.6 0 4 .6 2.9 1c-1.1.5-1.8.9-2.1 2.1L0 9.5v8.8h1.4v1.4c0 1.7 2.5 1.7 2.5 0v-1.4h9.2v1.4c0 1.7 2.5 1.7 2.5 0v-1.4H17V9.5l-.8-6.4zM5 1.6h7c.7 0 .7 1 0 1H5c-.7.1-.7-1 0-1zm-2.3 14c-.6 0-1.2-.5-1.2-1.2s.5-1.2 1.2-1.2c.6 0 1.2.5 1.2 1.2-.1.6-.6 1.2-1.2 1.2zm5.7-5.4H2.2c-.6 0-.7-.4-.7-.9l.6-4.7c.1-.6.3-.9 1-.9h10.7c.7 0 .9.4 1 .9l.6 4.7c.1.4-.1.9-.7.9H8.4zm5.9 5.4c-.6 0-1.2-.5-1.2-1.2s.5-1.2 1.2-1.2c.6 0 1.2.5 1.2 1.2 0 .6-.5 1.2-1.2 1.2z"/></symbol><symbol id="contacts-mail" viewBox="0 0 36 26"><path d="M0 23c0 1.6 1.3 3 3 3h30c1.7 0 3-1.3 3-3V3c0-1.6-1.3-3-3-3H3C1.3 0 0 1.3 0 3v20zm11-10L4.2 6.2c-.6-.6-.6-1.5 0-2 .6-.6 1.5-.6 2.1 0l11 10.9c.4.4 1.2.4 1.6 0l11-10.9c.6-.6 1.5-.6 2.1 0 .6.6.6 1.5 0 2L25 13l6.9 6.8c.6.6.6 1.5 0 2-.6.6-1.5.6-2.1 0L22.9 15s-2.1 2.2-2.5 2.5c-.6.6-1.4 1-2.4 1-.9 0-1.8-.4-2.4-1L13.1 15l-6.9 6.8c-.6.6-1.5.6-2.1 0-.6-.6-.6-1.5 0-2L11 13z"/></symbol><symbol id="contacts-phone" viewBox="0 0 36 36"><path d="M18 0C11.6 0 5.2 1.1 2.8 3.4.9 5.3.2 8.7 0 10.8v.3c0 .8.7 1.5 1.5 1.5.1 0 3.7-.3 5.9-.5h.2c.8 0 1.5-.7 1.5-1.5v-3C9 6.7 9.7 6 10.7 6h14.7c.8 0 1.6.7 1.6 1.7v3c0 .8.7 1.5 1.5 1.5h.2c2.2.2 5.8.5 5.9.5.8 0 1.5-.7 1.5-1.5v-.3c-.2-2.1-.9-5.5-2.8-7.4C30.8 1.1 24.4 0 18 0zm0 19.5c-1.7 0-3 1.3-3 3s1.3 3 3 3 3-1.3 3-3-1.3-3-3-3zm-2.3-6.8v-1.9c0-1-.8-1.9-1.9-1.9s-1.8.9-1.8 2v1.9L1.9 23.6c-.7.7-1.1 1.6-1.1 2.7v3c0 1.7 1.3 3 3 3h.8v1.9c0 1 .8 1.9 1.9 1.9s1.9-.8 1.9-1.9v-1.9h19.5v1.9c0 1 .8 1.9 1.9 1.9 1 0 1.9-.8 1.9-1.9v-1.9h.8c1.7 0 3-1.3 3-3v-3c0-1.1-.4-2-1.1-2.7L24 12.7v-1.9c0-1-.8-1.9-1.9-1.9s-1.9.8-1.9 1.9v1.9h-4.5zm2.3 3.8c3.3 0 6 2.7 6 6s-2.7 6-6 6-6-2.7-6-6 2.7-6 6-6z"/></symbol><symbol id="facebook" viewBox="0 0 11 21"><path d="M7.8 21H2.2v-9.8H0V6.4h2.1c-.1-2.2.3-3.8 1.3-4.9C4.2.6 5.5.1 7.1 0H11v4.7H7.9c-.1.2-.2.8-.2 1.7H11v4.8H7.8V21zm-4.4-1.1h3.1v-9.8h3.2V7.5H6.5v-.6c0-1.5 0-2.9.8-3.4l.2-.1h2.3V1.1H7.1c-1.2.1-2.2.5-2.8 1.2-.8.9-1.1 2.5-.9 4.6l.1.6H1.2v2.6h2.2v9.8z"/></symbol><symbol id="instagram" viewBox="0 0 23 23"><style>.st0{fill:#231f20}</style><path class="st0" d="M17 1.5c2.5 0 4.5 2 4.5 4.5v11c0 2.5-2 4.5-4.5 4.5H6c-2.5 0-4.5-2-4.5-4.5V6c0-2.5 2-4.5 4.5-4.5h11M17 0H6C2.7 0 0 2.7 0 6v11c0 3.3 2.7 6 6 6h11c3.3 0 6-2.7 6-6V6c0-3.3-2.7-6-6-6z"/><path class="st0" d="M11.5 7.1c2.4 0 4.4 2 4.4 4.4 0 2.4-2 4.4-4.4 4.4-2.4 0-4.4-2-4.4-4.4 0-2.4 2-4.4 4.4-4.4m0-1.5c-3.3 0-5.9 2.7-5.9 5.9s2.7 5.9 5.9 5.9 5.9-2.7 5.9-5.9-2.6-5.9-5.9-5.9z"/><circle class="st0" cx="17.6" cy="5.4" r="1.3"/></symbol><symbol id="plane" viewBox="0 0 19 21"><path d="M18.9 18.9c-.1-.3-3.7-10.1-3.7-10.1-.1-.5.1-.7.3-1.1 0 0 2.1-3.5 2.8-4.6.7-1.2.6-2.3-.1-2.8s-1.7-.1-2.5 1-3 4.5-3 4.5c-.3.4-.4.7-.9.8-.1-.1-10.3.4-10.6.4-.3 0-.7.1-1 .6-.4.7-.2.9.2 1 0 0 8 2.6 8.3 2.7.3 0 .3.2.2.6-.2.4-1.4 2.3-1.6 2.6-.1.2-.2.2-.4.3l-2.8 1c-.1 0-.3.1-.4.3l-.4.6c-.2.3-.1.5.2.5.3.1 2.1.2 2.1.2s.3.1.4.1c.2.1.4.3.2.6-.3.6-.4 1.2-.2 1.3s.6-.2 1-.7c.2-.3.4-.2.6 0 .2-.1.4.1.4.1s.8 1.6 1 1.9c.2.3.4.3.6 0l.4-.6c.1-.1.1-.3.1-.5l-.3-3.1c0-.2 0-.2.1-.5.1-.2 1.4-2.2 1.6-2.5.2-.3.4-.3.6-.1.2.2 5.7 6.7 5.7 6.7.3.3.5.4.9-.2.4-.4.3-.8.2-1z"/></symbol><symbol id="run" viewBox="0 0 20 21"><ellipse cx="14.3" cy="2" rx="2.1" ry="2"/><path d="M19.4 4.6c-.5-.2-1.2-.1-1.4.4l-.9 1.6L13 4.3c-.2-.1-.3-.1-.6-.1H7.9c-.4 0-.7.1-.9.5L5.3 7.6c-.3.5-.1 1.1.4 1.3.2.1.4.1.5.1.4 0 .8-.2 1-.5l1.4-2.4h1.6l-4.7 8.1H1.1c-.6 0-1.1.4-1.1 1s.5 1 1.1 1h5c.4 0 .7-.2.9-.5l1.9-3.2 3 2.6-.2 4.9c-.1.5.4 1 1 1h.1c.6 0 1-.4 1.1-.9l.3-5.4c0-.3-.1-.6-.3-.8l-2.6-2.2L14 7.1l3.1 1.8c0 .1.4.2.6.1.3-.1.5-.2.7-.5L19.9 6c.3-.5.1-1.1-.5-1.4z"/></symbol><symbol id="vk" viewBox="0 0 30 15.8"><path d="M23.9 15.8c-.4 0-1.2-.1-2.1-.6-.6-.4-1.2-1-1.8-1.5-.4-.4-1.2-1.2-1.4-1.2-.3.1-.5.9-.5 1.6 0 .1 0 .8-.5 1.2-.4.4-1.1.5-1.2.5h-1.9c-1 0-4.4-.2-7.4-3C3.4 9.4.3 3 .1 2.7 0 2.2-.1 1.5.3 1.1.7.7 1.4.6 1.7.6h4.2c.1 0 .6.1 1 .3.4.2.6.7.6.7S8.1 3 9 4.3c1.3 2 1.9 2.5 2.1 2.6.2-.4.3-1.7.2-2.9 0-.5-.1-1.1-.3-1.3-.1-.1-.4-.3-.8-.3l-.7-.6c-.1-.7.6-1.2 1.1-1.4.7-.3 1.8-.4 3.1-.4h.7c1.2 0 1.6.1 2.1.2 1.7.4 1.6 1.7 1.6 3.3v2.1c0 .4 0 1 .1 1.3.2-.1.9-.7 2.1-2.5.8-1.2 1.4-2.5 1.5-2.8.2-.4.6-.9 1.6-.9h4.7c1 0 1.6.3 1.8.9.3.6.2 1.7-2.4 4.6-.4.4-.7.8-1 1.1-.6.7-1.2 1.4-1.2 1.6.1.1.7.6 1.3 1.1 1.5 1.2 2.5 2.3 3 3.1.5.8.4 1.3.3 1.7-.4.9-1.6 1-1.9 1h-4.1zm-5.3-4.9c.9 0 1.7.8 2.5 1.6.5.5 1 1 1.5 1.3.7.4 1.3.4 1.4.4h3.9c.2 0 .4-.1.5-.1 0 0 0-.1-.1-.2-.4-.7-1.4-1.7-2.7-2.7-1.2-1-1.8-1.5-1.9-2.2-.1-.8.5-1.4 1.6-2.7.3-.3.6-.7 1-1.1 1.6-1.8 2-2.6 2.1-3h-5.3c-.2.4-.8 1.8-1.6 3-1.9 2.8-2.8 3.2-3.4 3.2-.2 0-.4 0-.6-.1-1-.6-1-1.8-.9-2.8V3.4c.1-1.7 0-1.7-.4-1.8-.4-.1-.7-.1-1.9-.2h-.7c-.6 0-1.3 0-1.9.1l.3.3c.6.7.6 2 .6 2.2.1 1.6.1 3.8-1 4.3-.2.1-.4.1-.6.1-.9 0-1.9-.9-3.4-3.3-.8-1.2-1.5-2.7-1.5-2.8L6 2.2c-.1 0-.2-.1-.3-.1H1.6c.6 1.2 3.4 6.6 6.5 9.5 2.7 2.5 5.8 2.6 6.4 2.6h1.9s.2-.1.3-.1V14c0-.3 0-2.6 1.6-3 .1-.1.2-.1.3-.1z"/></symbol></svg>